<?xml version="1.0" encoding="utf-8"?>
<!-- Generator: Adobe Illustrator 26.0.2, SVG Export Plug-In . SVG Version: 6.00 Build 0)  -->
<svg version="1.1" id="Layer_1" xmlns="http://www.w3.org/2000/svg" xmlns:xlink="http://www.w3.org/1999/xlink" x="0px" y="0px"
	 viewBox="0 0 16 16" style="enable-background:new 0 0 16 16;" xml:space="preserve">
<style type="text/css">
	.st0{fill:#F97850;}
	.st1{fill:#FFFFFF;}
</style>
<circle class="st0" cx="8" cy="8" r="8"/>
<path d="M8.1,7.5"/>
<path class="st1" d="M8.1,9.2H7.9C7.4,9.2,7,8.8,7,8.3V3.1c0-0.5,0.4-0.9,0.9-0.9h0.2C8.6,2.3,9,2.7,9,3.1v5.2
	C9,8.8,8.6,9.2,8.1,9.2z"/>
<path class="st1" d="M11,11.1l-0.1,0.1c-0.3,0.3-0.9,0.3-1.2,0L7.3,8.9C7,8.6,7,8,7.3,7.7l0.1-0.1c0.3-0.3,0.9-0.3,1.2,0L11,9.9
	C11.3,10.2,11.3,10.8,11,11.1z"/>
</svg>
