<?xml version="1.0" encoding="utf-8"?>
<!-- Generator: Adobe Illustrator 26.0.2, SVG Export Plug-In . SVG Version: 6.00 Build 0)  -->
<svg version="1.1" id="Layer_1" xmlns="http://www.w3.org/2000/svg" xmlns:xlink="http://www.w3.org/1999/xlink" x="0px" y="0px"
	 viewBox="0 0 16 16" style="enable-background:new 0 0 16 16;" xml:space="preserve">
<style type="text/css">
	.st0{fill:#F9BC35;}
	.st1{fill:#FFFFFF;}
</style>
<path class="st0" d="M6.9,1.3L0.3,13.8c-0.4,0.8,0.2,1.8,1.1,1.8h13.2c0.9,0,1.5-1,1.1-1.8L9.1,1.3C8.6,0.4,7.4,0.4,6.9,1.3z"/>
<path d="M8.1,7.5"/>
<path class="st1" d="M8.1,10.3H7.9C7.4,10.3,7,9.9,7,9.4v-4C7,5,7.4,4.6,7.9,4.6h0.2C8.6,4.6,9,5,9,5.4v4C9,9.9,8.6,10.3,8.1,10.3z"
	/>
<circle class="st1" cx="8" cy="12.6" r="1.4"/>
</svg>
