<?xml version="1.0" encoding="utf-8"?>
<!-- Generator: Adobe Illustrator 26.0.2, SVG Export Plug-In . SVG Version: 6.00 Build 0)  -->
<svg version="1.1" id="Layer_1" xmlns="http://www.w3.org/2000/svg" xmlns:xlink="http://www.w3.org/1999/xlink" x="0px" y="0px"
	 viewBox="0 0 16 16" style="enable-background:new 0 0 16 16;" xml:space="preserve">
<style type="text/css">
	.st0{fill:#F74037;}
	.st1{fill:#FFFFFF;}
</style>
<circle class="st0" cx="8" cy="8" r="8"/>
<path d="M8.1,7.5"/>
<path class="st1" d="M11,10.9L10.9,11c-0.3,0.3-0.9,0.3-1.2,0L4.9,6.3c-0.3-0.3-0.3-0.9,0-1.2l0.1-0.1c0.3-0.3,0.9-0.3,1.2,0L11,9.7
	C11.4,10,11.4,10.6,11,10.9z"/>
<path class="st1" d="M5.1,11l-0.1-0.1c-0.3-0.3-0.3-0.9,0-1.2l4.8-4.8c0.3-0.3,0.9-0.3,1.2,0L11,5.1c0.3,0.3,0.3,0.9,0,1.2L6.3,11
	C5.9,11.4,5.4,11.4,5.1,11z"/>
</svg>
